<svg xmlns="http://www.w3.org/2000/svg" viewBox="0 0 1127.33 174.84"><defs><style>.cls-1{fill:#e6e6e6;}.cls-2{fill:#fff;}.cls-3,.cls-6{fill:none;}.cls-4{fill:#999;}.cls-5{fill:#17355d;}.cls-6{stroke:#17355d;stroke-linecap:round;stroke-linejoin:round;stroke-width:0;}</style></defs><title>AT-logo-desktop</title><g id="Layer_2" data-name="Layer 2"><g id="Layer_1-2" data-name="Layer 1"><path class="cls-1" d="M521.81,41.43V3.85A3.85,3.85,0,0,1,525.66,0h37.59c2.12,0-33.74,7.69-33.74,7.69S521.81,43.56,521.81,41.43Z"/><path class="cls-1" d="M563.25,140H525.66a3.85,3.85,0,0,1-3.84-3.84V98.55c0-2.12,7.69,33.74,7.69,33.74S565.37,140,563.25,140Z"/><path class="cls-1" d="M658,140H620.37c-2.12,0,33.74-7.69,33.74-7.69s7.69-35.87,7.69-33.74v37.59A3.85,3.85,0,0,1,658,140Z"/><path class="cls-1" d="M654.11,7.69S618.24,0,620.37,0H658a3.85,3.85,0,0,1,3.84,3.85V41.43C661.8,43.56,654.11,7.69,654.11,7.69Z"/><path class="cls-2" d="M649.75,28.89a67.5,67.5,0,1,0-103.07,86.4,68.31,68.31,0,0,0,9.06,7.61,72.81,72.81,0,0,1-19.91-50.11c0-16.68,5.82-33.26,18.18-45.62S583,9,599.63,9A72.81,72.81,0,0,1,649.75,28.89Z"/><path class="cls-3" d="M587,46.73l-.1,0Z"/><path class="cls-3" d="M593.46,61.16c-.17-.51-.39-.39-.37-.09a2.73,2.73,0,0,1-.22,1.41,25.84,25.84,0,0,0-.94,4.22c-.08.93.34,2.37.31,3.5s-.56,2.25-.62,4.29a31.39,31.39,0,0,1-1.38,6.74,4.86,4.86,0,0,0-.31,2.56,22,22,0,0,1-.74,4.68c0,.07,0,.14,0,.21-.07.41-.12,1.07-.14,1.62V90c0,.23,0,.4,0,.41,0,.28,0,.56,0,.84,0,0,0,0,0,.05a2.91,2.91,0,0,1,0,.32.86.86,0,0,1,0,.15,21.58,21.58,0,0,0-.37,2.43c0,.87-.91,5-1.07,6.26s0,2.45-.36,3c-.08.1-.16.29-.25.4s0,.07,0,.07a50.41,50.41,0,0,1,4,6.77c0-.12,1.86-4.36,1.47-7.72a22,22,0,0,1,.66-7.73,4.7,4.7,0,0,0,.57-1.71,18.07,18.07,0,0,1,.51-3.34,17.29,17.29,0,0,1,2.43-5.07c1.11-1.75.93-3.4,2-5.06a4.08,4.08,0,0,0,.33-3.79c-.27-1-.9-2.82-1.23-3.82s-.57-1-.54-2.1-.11-.48-.48-1.5a9.19,9.19,0,0,1-.08-2.72l-.22-.26A28.49,28.49,0,0,1,593.46,61.16Z"/><path class="cls-3" d="M589.2,88.48a2.89,2.89,0,0,0-.06.3l0-.09C589.17,88.61,589.19,88.54,589.2,88.48Z"/><path class="cls-3" d="M586.8,46.82l-.08,0Z"/><path class="cls-3" d="M586.91,46.77l-.09,0Z"/><path class="cls-3" d="M589.66,52.11a8.27,8.27,0,0,0-.52-1.05C589.38,51.53,589.6,52,589.66,52.11Z"/><path class="cls-3" d="M603.75,74.08a6.76,6.76,0,0,1-.54-.48A4.63,4.63,0,0,0,603.75,74.08Z"/><path class="cls-3" d="M582.9,58.38l-.67.19Z"/><path class="cls-3" d="M620.73,66.47a7,7,0,0,1,1.27-.74,11.83,11.83,0,0,0-1.28.68A.51.51,0,0,0,620.73,66.47Z"/><path class="cls-3" d="M571,89.38a1.45,1.45,0,0,0,.41.08l-.43-.09Z"/><path class="cls-3" d="M568.66,69.14l.83-.26h0Z"/><path class="cls-3" d="M570.48,49l.72-.41-.72.41Z"/><path class="cls-4" d="M568.66,69.14l.83-.26h0A10.64,10.64,0,0,0,573.06,67a7.93,7.93,0,0,0,2.08-6.62,22.14,22.14,0,0,0-3.29-8.28,18.16,18.16,0,0,0-1.57-1.92c-.38-.4-.47-.52-.48-.63-.05.17,0,.36-.11.47s-2.53,2.38-4.17,2.79c-.27.07-5.37,1.21-6.63,5.61,0,0-1.17,3.34-7.89,8.37,0,0-2.73,2.54-2.93,4.07s-.11,2.05.76,6a26.57,26.57,0,0,0,1.83,6.19c.59,1.3,2.46,4.66,2.71,6.49s1.52,3.24,1.47,4.14a11.24,11.24,0,0,0,.29,3.7,23.11,23.11,0,0,1,.84,2.56,14.14,14.14,0,0,1,.51,2.09c0,.33.3,1.29.52,1.38a.78.78,0,0,0,.69,0c.3-.13.46-.42.38-1s-.13-1,.08-.46.57,1.63.65,1.92.32.79.56.85a1.15,1.15,0,0,0,.76-.11c.21-.1.15,0,.47.14a.82.82,0,0,0,.91-.09,1.4,1.4,0,0,0,.38-1.14c0-.44.21-.15.38-.15s.59-.15.78-.78a7.55,7.55,0,0,0,.11-2.91c-.17-.91-.48-2.26-.21-2s1.16.4,1.29-.19a10.38,10.38,0,0,0-.27-3.24c-.27-1,.13-1.81-.88-2.6a7.12,7.12,0,0,0-2.22-1.33c-.54-.08-2.41-.9-3.87-7.09a31.94,31.94,0,0,1-.82-5.18c-.15-2.54-.62-5.18-.62-5.18s.11-.3.6-.36,4.36-2.75,7.53-5.18c0,0,.08,0,.23.47s1.07,2.24,1.36,2.75A9.1,9.1,0,0,1,568.66,69.14Zm6.53-7.69-.06,0Z"/><path class="cls-4" d="M574.26,48.76h0l.42.57.73,1c.63.92,2.54,4.72,3.72,6.16.67.83,2,2.37,3.1,2.06l.67-.19a4.6,4.6,0,0,0,.73-.29c.26-.14,1.4-.66,1.7-.75,1.22-.6,1.2-2.32,1.2-3.06,0-.48-.17-2.12-.23-2.51a13,13,0,0,1-.41-3,2.67,2.67,0,0,1,.37-1.45l.12-.17a.61.61,0,0,1,.2-.17l.14-.07.08,0h0l.09,0h0l.1,0c0-.08.07-.21.27-.3a2.21,2.21,0,0,0,1.05-2.28c-.07-1.62.09-1.57.14-1.81.13-.55-.51-.47.11-1.21.33-.39.15-.89.18-1a1.66,1.66,0,0,1,.85-1.4c.22-.1,1-.38.83-1s-1.19-2-1.35-2.5.34-1,.37-1.46-.1-.73-.71-1.7-.65-1.24-.49-1.56.89-2.08-1.8-3.6-3.24-1.66-3.81-1.76-2.76-.1-3.36-.1a6.76,6.76,0,0,0-1.61,0c-.46.13-1.73.68-2,.72a2.74,2.74,0,0,0-1.14.32c-.43.26-.51.53-1.17.57s-.73.15-1.17.65a8.32,8.32,0,0,1-1.1,1.36c-.34.21-.25.72-.27,1.09a5.5,5.5,0,0,1-.21,1.52,7.39,7.39,0,0,0-.08,1.94,7,7,0,0,0,.28,2c.17.46.67,2.26,1,2.9s1,1.69,1.28,2.24.75,1.25,1,1.75.63,1.21.68,1.31a4.19,4.19,0,0,1,.11.41s.62,2.69-1.51,3.85C573.52,47.78,573.87,48.24,574.26,48.76Z"/><path class="cls-2" d="M590.95,133.31c-.08-1-.59-1.47-2.31-3.87a19.75,19.75,0,0,0-2.4-2.55A26.68,26.68,0,0,1,581,132c-1.29,1-3.36,2.17-6.43,8.06s-3.76,8.15-4.3,8.81a14.8,14.8,0,0,1-2.71,2.92.53.53,0,0,0-.36-.05h0a.91.91,0,0,0-.43.26,13.55,13.55,0,0,0-2.89,3.63,5.86,5.86,0,0,0,.75,5.09c1.17,2.08,1.38,5,1.66,6.34s1.26,3.88,3.64,4.58a24.44,24.44,0,0,0,7,.69c.48-.16,1.53-1.48,1.35-1.89a2.81,2.81,0,0,0-1.44-1.45c-1-.59-1.44-.18-1.77-2.25s-.36-4.18-.63-4.72a1.77,1.77,0,0,1-.06-1.78,4.66,4.66,0,0,0,.54-1.89c0-.47-.19-.78-.39-.64a1.05,1.05,0,0,0-.26,0c-.27-1.29.47-2.93.47-3.22a8.06,8.06,0,0,1,.63-1.75,21.14,21.14,0,0,1,4.36-5.81c3-3.12,4.18-4.24,5.44-5.62a32.69,32.69,0,0,1,5.35-4.81l.47-.27C591,134.77,591,133.66,590.95,133.31Z"/><path class="cls-2" d="M643.82,107.78c-2.14-2.26-4.6-4.66-5.2-5.23A29.85,29.85,0,0,0,635,100c-.31-.3-7.46-4-7.68-4.08-1.36-.63-2.48-1.15-3.39-1.65-3.59-2-3.32-3.63-3.32-3.78,0-2.44.39-5.29.12-7.27,0,0-.08-.91-.11-2.21a25.71,25.71,0,0,1,.74-6.67c.31-1.19,1.26-4.18,1.26-4.18a44.18,44.18,0,0,1,2.68-4.09,53,53,0,0,0,4-6.5c.58-1.17,1.83-1.55,2.71-3.15a15.34,15.34,0,0,0,1.42-3.41c.18-.63.37-1.46,0-1.71-.14-.1-.47-.23-.63,0s.09-.28.09-.68a1,1,0,0,0-.57-1,.9.9,0,0,0-.7,0,3.59,3.59,0,0,0,.13-.68c0-.81-.77-.94-1.32-.67-.25.07-.07-.32,0-.65a1.07,1.07,0,0,0-.33-.87,1.11,1.11,0,0,0-1-.23,1.08,1.08,0,0,0-.43.16.49.49,0,0,0-.25-.29c-.2-.11-.4-.16-.71.29a5.68,5.68,0,0,1-1.47,1.28c-.69.42-.7,1.67-1.26,2.3a2.23,2.23,0,0,0-.77,1.7,26.74,26.74,0,0,1,.4,3,7,7,0,0,1-.13,1.37l.12,0a1.22,1.22,0,0,1,1.2.15.54.54,0,0,1,.19.34,2.6,2.6,0,0,1,.63.31c.19.17.13.91-.44,1.25s-.26.36-.11.38.36.42.36.8-.88,1-1.55,1.65-1.67,1.57-2.29,2.07,0,.41,0,.41,1.14-.51,2.13-.94,1,.13,1.1.28-.21.78-.41,1A22.13,22.13,0,0,1,622,65.74a7,7,0,0,0-1.27.74.51.51,0,0,1,0-.06,25.76,25.76,0,0,0-2.59,1.81c-.66.5-7.7,4.65-9.67,5.56s-3.51,1.09-4.58.39l-.13-.1a4.63,4.63,0,0,1-.54-.48c-1.75-1.7-5.59-6.26-6.62-7.47a9.19,9.19,0,0,0,.08,2.72c.37,1,.51.39.48,1.5s.22,1.11.54,2.1,1,2.83,1.23,3.82a4.08,4.08,0,0,1-.33,3.79c-1,1.66-.84,3.31-2,5.06a17.29,17.29,0,0,0-2.43,5.07,18.07,18.07,0,0,0-.51,3.34,4.7,4.7,0,0,1-.57,1.71,22,22,0,0,0-.66,7.73c.39,3.36-1.43,7.6-1.47,7.72l1.17,2.22c2.23,4.26,7.1,9.64,7.61,10.92.14.36.28.66.4,1,.3-.61.52-1.06.58-1.19a3.23,3.23,0,0,0,.51-.39c.21-.27,2.73-5.8,3.4-7.28a44.84,44.84,0,0,1,5.11-6.74c.87-.87.93-1.14,1.39-.84a27.48,27.48,0,0,0,6.88,3,28,28,0,0,0,8.09.93l.56,0c.47,0-.1.17-.1.17s-3,.84-3.91,1.75-2,3.1-3.22,4.05-4.84,4.1-5.17,4.31-.31,0-.75.21a6.39,6.39,0,0,1-3,1.1,29.5,29.5,0,0,0-3,.79c-1.35.57-3.36,1.76-3.46,2.94s1.17,3.8,1.84,5,2.41,3.36,1.81,6.34a8.45,8.45,0,0,0,1,6.53c1.05,2,2,3.24,3.1,3.54s2.65-.21,2.86-1.2-.75-4.18-.85-6.37.09-4.45.85-5.44a4.74,4.74,0,0,1,2.59-1.93c.9-.18,1-1.08.53-1.17l-.28,0c-.3,0-.91,0-.91,0l-.59-.07c-.45-.09-.5-.32-.18-.87.57-1,3.22-2.77,3.26-2.91h0a18.76,18.76,0,0,1,5.24-3.55c3.43-1.29,8.39-2.79,9.89-3.61a36.25,36.25,0,0,1,4.84-2.43c1.26-.39,5-2.74,5.71-4.33S645.95,110,643.82,107.78Z"/><path class="cls-2" d="M601.09,59.65c3.23,4.22,4.7,5.69,6.15,8.73,1-.69,5.94-2.28,7.47-3.66.32-.29.23-.86.16-1.35a7.2,7.2,0,0,1,1.21-2.85,5.28,5.28,0,0,1,2.18-1.77c.3-.19.74-1,1.12-1.31s1.09.15,1.27.4a2.77,2.77,0,0,1,.26.87,12.51,12.51,0,0,0,.89-.92,2.34,2.34,0,0,1,.36-.3c-.46-1.34-1.46-4.14-1.44-4.47s.48-2.49,0-3.45a5.9,5.9,0,0,0-2.64-2.46c-1.21-.76-3.44-2-3.44-2a1,1,0,0,1-.22-.09c-.07,0-.1-.11,0-.21a2.47,2.47,0,0,1,1.72-.62c1,0,2.41-.46,2.35-1.64a13.42,13.42,0,0,1-.07-2.2c0-.72-.12-1.09-.25-1.16s.12-.2.2-.68,0-.43.5-.54,1.35-.63,1.15-1.35-1.4-2.15-1.69-2.82-.29-.75-.16-1a2.47,2.47,0,0,0,0-1.82c-.13-.4-.6-1.3-.74-1.72a14.57,14.57,0,0,0-.79-1.6.76.76,0,0,0,.16-.39c0-.18-.66-.42-.23-1s.88-.82.92-1.09-.58-.27-.78-.27h0c.07,0,.22-.11.32-.43.18-.53.07-.74-.61-.4s-.59.11-.38-.38.58-.86-.47-.53-1.67.5-4.26.07-5-.59-6.89.3A5.53,5.53,0,0,0,602,25.41a6.91,6.91,0,0,0-1.37,2,7.76,7.76,0,0,0-.61,2c0,.58-.68,2-.32,3.11a17.47,17.47,0,0,1,.43,2.5,14.29,14.29,0,0,0,1.09,2.37c.53,1,.65,1.06.88,1.53s.38.9.51,1.15a5.19,5.19,0,0,0,.29.45s.27.09.33.6.39,1.63.21,2l-.12.2a5.19,5.19,0,0,0-.46.64v0a2.28,2.28,0,0,0-.42.65,16.47,16.47,0,0,0-3.64,3.78c-.85,1.14-1.38,1.89-1.75,2.45C599.67,53.54,599.23,57.22,601.09,59.65Z"/><path class="cls-4" d="M589.2,88.48c0,.06,0,.13,0,.21C589.17,88.62,589.18,88.55,589.2,88.48Z"/><path class="cls-4" d="M589.16,88.69l0,.09A11.89,11.89,0,0,0,589,90v.34C589,89.76,589.09,89.11,589.16,88.69Z"/><path class="cls-4" d="M588.29,49.46c.05.09.48.89.85,1.59a8.27,8.27,0,0,1,.52,1.05c.3.73.43,1.51.73,2.28s.75,1.46,1.1,2.23.52,1.55.85,2.31c.49,1.19,1,2.27.53,3.55a2.73,2.73,0,0,0,.22-1.41c0-.3.2-.42.37.09a28.49,28.49,0,0,0,2.91,4.71l.22.26c1,1.21,4.87,5.77,6.62,7.47a6.76,6.76,0,0,0,.54.48l.13.1c1.07.7,2.61.52,4.58-.39s9-5.05,9.67-5.56a25.76,25.76,0,0,1,2.59-1.81,11.83,11.83,0,0,1,1.28-.68A22.13,22.13,0,0,0,625.36,64c.19-.2.51-.83.41-1s-.11-.7-1.1-.28-2.13.94-2.13.94-.57.1,0-.41,1.6-1.46,2.29-2.07,1.55-1.27,1.55-1.65-.2-.78-.36-.8-.46,0,.11-.38.64-1.09.44-1.25a2.6,2.6,0,0,0-.63-.31.54.54,0,0,0-.19-.34,1.22,1.22,0,0,0-1.2-.15l-.12,0a10.67,10.67,0,0,0-2.31,1.16,2.34,2.34,0,0,0-.36.3,12.51,12.51,0,0,1-.89.92,2.77,2.77,0,0,0-.26-.87c-.17-.25-.89-.68-1.27-.4s-.82,1.13-1.12,1.31a5.28,5.28,0,0,0-2.18,1.77,7.2,7.2,0,0,0-1.21,2.85c.07.49.16,1.06-.16,1.35-1.53,1.37-6.48,3-7.47,3.66-1.45-3-2.93-4.51-6.15-8.73-1.86-2.43-1.42-6.11-4.06-8.77a9.45,9.45,0,0,0-3.95-2.26c-1.25-.4-4.92-.73-5.9-1.79h0A10.41,10.41,0,0,0,588.29,49.46Z"/><path class="cls-4" d="M571.2,48.56l-.73.42h0Z"/><path class="cls-4" d="M592.16,112.92,591,110.7a50.41,50.41,0,0,0-4-6.77s-.06,0,0-.07.18-.3.25-.4c.4-.56.19-1.78.36-3s1.07-5.38,1.07-6.26a21.58,21.58,0,0,1,.37-2.43.86.86,0,0,0,0-.15,2.91,2.91,0,0,0,0-.32c0,1-1,2.74-4.05,2.68a10.54,10.54,0,0,1-2.59-.26c-.82-.22-1.65-.5-2.48-.7s-1.51-.37-2.45-.54c-2.78-.51-2.72-2.07-5.37-2.84-.16,0-.4-.1-.66-.15a1.45,1.45,0,0,1-.41-.08h0a4.88,4.88,0,0,1-.55-.14,3.78,3.78,0,0,0-2.17-.94,19,19,0,0,0-.86,1.83c-.4,1-2,3.3-2.23,3.94a16.5,16.5,0,0,0-.43,7.39c.2.92.35,1.82.59,2.68.35,1.26,1.2,3.86,2.11,6.34,0,0-.14.42-.17.56s-1.77,6.49-1.94,8.35,0,4-.45,5.13-.26,1.64-.93,1a14.19,14.19,0,0,0-7-4.2,24,24,0,0,1-5-1.38c-1.47-.47-10-2.59-11.26-3s-2.39-.82-2.76-1.38a4.33,4.33,0,0,1-.24-.66,11.81,11.81,0,0,0-3.92-4.63,1.08,1.08,0,0,0-1.2.23,22.19,22.19,0,0,0-3.6,3.36c-1.36,1.71-3.76,2.67-5,3.32a13.79,13.79,0,0,0-5.08,4.58c-1.48,2.41-1.18,3-.84,3.73a2.07,2.07,0,0,0,2.62.8c1.13-.49,1.85-1.59,4-2.15a14.62,14.62,0,0,1,4.9-.75c1.51.09,2.56.15,3,.55s1,.85,1.31.25a7.28,7.28,0,0,0,.41-1.41.25.25,0,0,1,.17,0,29.4,29.4,0,0,1,11.29,3.91c5.64,3.39,11.69,7.21,14.94,9.1a46.42,46.42,0,0,0,5.5,2.68c.5.31,3.24.74,5.13-2s4.26-6.88,5.61-8.88,3.49-5.41,3.49-5.41.12-.09.26.09,3.19,2.53,5.6,4.78a19.75,19.75,0,0,1,2.4,2.55c1.72,2.4,2.23,2.82,2.31,3.87,0,.36,0,1.47,0,2.85,0,2.68.07,6.39.6,7.69a98.39,98.39,0,0,0,5.24,10.07c1.8,2.92,4.57,7.83,5.53,11.67a15.54,15.54,0,0,1,.35,2.26,1.63,1.63,0,0,1-.07.22h0c-.14.22,0,.64.09.85a11.63,11.63,0,0,0,1.79,3.85c.91,1,1.35,1.73,2,1.89s3.77-.51,5.8-.28,4.13.85,5.28.11,4.55-2.32,6-4.53,1.52-2.49,1.12-3.05a2.79,2.79,0,0,0-2.26-1.07c-1.06,0-1.57.49-3.51.34s-5.94-.7-7.63-1.83c-.24-.16-.48-.4-.75-.55a23.87,23.87,0,0,1-3.33-3.38c-.55-.7-2.14-3.94-3.7-12s-2.33-9.2-2.76-10.57a22.84,22.84,0,0,1-.42-8.26c.28-2.88.13-4-.17-4.79-.12-.33-.26-.63-.4-1C599.27,122.56,594.39,117.18,592.16,112.92Z"/><path class="cls-2" d="M570.94,89.36l.43.09c.26.05.5.1.66.15,2.66.77,2.59,2.33,5.37,2.84.93.17,1.67.34,2.45.54s1.66.48,2.48.7a10.54,10.54,0,0,0,2.59.26c3.07.06,4-1.7,4.05-2.68,0,0,0,0,0-.05,0-.28,0-.56,0-.84,0,0,0-.17,0-.41a11.89,11.89,0,0,1,.11-1.19,2.89,2.89,0,0,1,.06-.3,22,22,0,0,0,.74-4.68,4.86,4.86,0,0,1,.31-2.56,31.39,31.39,0,0,0,1.38-6.74c.06-2,.59-3.16.62-4.29s-.39-2.57-.31-3.5a25.84,25.84,0,0,1,.94-4.22c.51-1.28,0-2.37-.53-3.55-.33-.76-.52-1.56-.85-2.31s-.8-1.47-1.1-2.23-.43-1.54-.73-2.28c-.06-.15-.28-.58-.52-1.05-.37-.7-.79-1.5-.85-1.59a10.41,10.41,0,0,1-1.12-2.63h0a.12.12,0,0,0-.14-.1l-.1,0h0l-.09,0h0l-.08,0-.14.07a.61.61,0,0,0-.2.17l-.12.17a2.67,2.67,0,0,0-.37,1.45,13,13,0,0,0,.41,3c.06.39.23,2,.23,2.51,0,.74,0,2.46-1.2,3.06-.3.09-1.44.61-1.7.75a4.6,4.6,0,0,1-.73.29l-.67.19c-1.06.31-2.43-1.23-3.1-2.06-1.17-1.44-3.09-5.24-3.72-6.16l-.73-1-.42-.57h0c-.38-.52-.74-1-.85-1.09v0a.75.75,0,0,0-.74-.14c-.42.14-.87.69-1.21.9l-.24.14-.72.41h0a1.41,1.41,0,0,0-.67.55,0,0,0,0,0,0,0c0,.11.1.23.48.63a18.16,18.16,0,0,1,1.57,1.92,22.14,22.14,0,0,1,3.29,8.28A7.93,7.93,0,0,1,573.06,67a10.64,10.64,0,0,1-3.57,1.87l-.83.26a9.1,9.1,0,0,0-3.41,1.47.35.35,0,0,0-.09.2,1.34,1.34,0,0,0,.43,1.06c0,.13-.19.15-.06.42a10,10,0,0,1,.7,1.1c.16.42,0,1.06.58,1.82a5.27,5.27,0,0,1,.9,2.41,13.24,13.24,0,0,0,.3,2.52c.17.46.55,3,.78,3.55a8.47,8.47,0,0,1,.11,2.1c0,.38-.36.89-.41,1.08a7.14,7.14,0,0,0-.3,1.16.79.79,0,0,0,0,.25,3.78,3.78,0,0,1,2.17.94A4.88,4.88,0,0,0,570.94,89.36ZM582.58,71.5c.7-.73,1.35-.48,2.79-.6s3.81-.59,3.81-.59-.11.78-.19,1.43A5.36,5.36,0,0,0,589,73a13.71,13.71,0,0,0,.39,3.24c.42,1.78.06,1.44,0,2.48a15.36,15.36,0,0,1-.39,2.56,8.46,8.46,0,0,1-.85,1.78A10.61,10.61,0,0,1,583.7,85a38.59,38.59,0,0,0-5.06,1.38s0,.2-.09-.14a8,8,0,0,1,.14-2.17,8.36,8.36,0,0,0-.23-3.55,15,15,0,0,1,0-5.13,17,17,0,0,0,0-2.82,4.27,4.27,0,0,0,1.58-.11C581.14,72.18,581.87,72.24,582.58,71.5Z"/><path class="cls-5" d="M578.46,72.52a17,17,0,0,1,0,2.82,15,15,0,0,0,0,5.13,8.36,8.36,0,0,1,.23,3.55,8,8,0,0,0-.14,2.17c.09.34.09.14.09.14A38.59,38.59,0,0,1,583.7,85a10.61,10.61,0,0,0,4.44-1.86,8.46,8.46,0,0,0,.85-1.78,15.36,15.36,0,0,0,.39-2.56c.06-1,.42-.7,0-2.48A13.71,13.71,0,0,1,589,73a5.36,5.36,0,0,1,0-1.28c.08-.65.19-1.43.19-1.43s-2.37.48-3.81.59-2.09-.14-2.79.6-1.44.67-2.54.9A4.27,4.27,0,0,1,578.46,72.52Z"/><line class="cls-6" x1="575.19" y1="61.44" x2="575.13" y2="61.49"/><path class="cls-2" d="M765.76,35.62H736.71L714,126.31H684.46l22.68-90.69h-29l3.38-13.55h87.69Z"/><path class="cls-2" d="M780.09,126.31H750.52L770.2,47.21h29.57Zm5.6-82.08A11.21,11.21,0,0,1,777.42,41a10.93,10.93,0,0,1-3.18-8q0-7,5.85-12.7c3.91-3.78,8.27-5.67,13-5.67a11.36,11.36,0,0,1,8.4,3.19,10.84,10.84,0,0,1,3.19,8q0,7-5.93,12.7T785.69,44.22Z"/><path class="cls-2" d="M899.77,126.31H870.45l15.38-61.62a7.6,7.6,0,0,0,.25-1.7,2,2,0,0,0-2.21-2.23,9.62,9.62,0,0,0-3.78.52,3.9,3.9,0,0,0-2.1,3l-15.49,62H833.19l15.38-61.62a8.26,8.26,0,0,0,.27-1.7,2,2,0,0,0-2.22-2.23,9.66,9.66,0,0,0-3.78.52,3.87,3.87,0,0,0-2.08,3l-15.5,62H795.67L812.6,58.16a14.25,14.25,0,0,1,5.21-7.56,13.43,13.43,0,0,1,8.47-3.39h81.83a9.29,9.29,0,0,1,6.45,2.28,7.75,7.75,0,0,1,2.54,6.06,12.17,12.17,0,0,1-.38,2.87Z"/><path class="cls-2" d="M944.14,126.31H914.57l19.68-79.09h29.57Zm5.6-82.08A11.18,11.18,0,0,1,941.47,41a10.87,10.87,0,0,1-3.19-8c0-4.69,2-8.92,5.86-12.7s8.25-5.67,13-5.67a11.38,11.38,0,0,1,8.41,3.19,10.86,10.86,0,0,1,3.19,8q0,7-5.93,12.7T949.74,44.22Z"/><path class="cls-2" d="M1026.56,126.31H997.24l15.37-61.62a7.27,7.27,0,0,0,.26-1.7,2,2,0,0,0-2.2-2.23,9.65,9.65,0,0,0-3.78.52,3.88,3.88,0,0,0-2.09,3l-15.5,62H959.7l16.95-68.14a14.22,14.22,0,0,1,5.21-7.56,13.38,13.38,0,0,1,8.46-3.39h44.57a9.32,9.32,0,0,1,6.45,2.28,7.72,7.72,0,0,1,2.54,6.06,12.11,12.11,0,0,1-.39,2.87Z"/><path class="cls-2" d="M1104.27,149.24a15.47,15.47,0,0,1-14.08,10.94h-44.55a8,8,0,0,1-6.78-3.32,8.87,8.87,0,0,1-1.3-7.88l3.65-14.87h29.57l-2.08,8.61a7.08,7.08,0,0,0-.27,1.69c0,1.48.71,2.21,2.09,2.21a9.45,9.45,0,0,0,3.77-.52,3.75,3.75,0,0,0,2.22-3l4.17-16.8h-26.58a8,8,0,0,1-6-2.55,8.38,8.38,0,0,1-2.47-6.06,10.82,10.82,0,0,1,.25-2.34l14.34-57.2a14.27,14.27,0,0,1,5.21-7.56,13.39,13.39,0,0,1,8.47-3.39h44.56a9.11,9.11,0,0,1,6.32,2.28,7.72,7.72,0,0,1,2.54,6.06,11.91,11.91,0,0,1-.38,2.87Zm-19.15-40.39,10.94-44.16a7.47,7.47,0,0,0,.27-1.7c0-1.48-.7-2.23-2.09-2.23a9.63,9.63,0,0,0-3.78.52,3.8,3.8,0,0,0-2.21,3L1077,109.23a4.53,4.53,0,0,0-.27,1.3,1.79,1.79,0,0,0,.86,1.76,8.86,8.86,0,0,0,3.58.46C1083.11,112.75,1084.42,111.45,1085.12,108.85Z"/><g id="Layer_2-2" data-name="Layer 2"><path class="cls-2" d="M494.8,90.53l-4.26,11.71a37.74,37.74,0,0,1-13.47,17.49c-6.52,4.83-13.12,7.26-19.85,7.26H442.85q-10.23,0-14.69-7.27t-.74-17.53l12.64-34.74a38,38,0,0,1,13.49-17.53q9.78-7.25,20-7.27h14.38q10.24,0,14.62,7.26c2.92,4.85,3.17,10.68.67,17.49L499.71,77H476.44l6.27-17.24a10.83,10.83,0,0,0,.43-7.3q-1.06-3.18-4.93-3.18a10.27,10.27,0,0,0-7.3,3.2,19.24,19.24,0,0,0-4.82,7.33L448,109.51a10.83,10.83,0,0,0-.53,7.11q1,3.4,5,3.41c2.57,0,5.06-1.14,7.47-3.41a18.26,18.26,0,0,0,4.66-7.11l6.91-19Z"/><path class="cls-2" d="M404.6,127H382.83l30.58-84,21.89-.3ZM442.8,22.06l-4.21,11.56H416.81L421,22.06Z"/><path class="cls-2" d="M402.48,42.66,400,49.33H382l-21.8,59.91q-2.3,6.36,0,8.73,1.76,1.76,7.29,1.77h5.38L370.14,127H355q-11.7,0-15.24-8.59-3.36-7.86,1-19.86L358.7,49.33H346.38l2.45-6.66h12.29l5.13-14.07,23.21.14-5.07,13.93Z"/><path class="cls-2" d="M323.47,96.46l-2.11,5.78a39,39,0,0,1-13.51,17.57q-9.58,7.17-20,7.18H273.52q-10.07,0-14.55-7.27t-.73-17.53l12.65-34.74a37.91,37.91,0,0,1,13.49-17.53q9.75-7.25,19.85-7.27H318.6q10.07,0,14.61,7.34c3,4.89,3.29,10.7.83,17.41l-7.28,20H286.88l-8,22a11.75,11.75,0,0,0-.7,7.15,4.67,4.67,0,0,0,4.93,3.43q8.5,0,14.13-15.41.58-1.64,1.61-4.45c.68-1.88,1.13-3.12,1.35-3.71ZM305.92,80.74l7.5-21a11.81,11.81,0,0,0,.68-7.14C313.37,50.23,311.69,49,309,49s-5.07,1.18-7.51,3.55A18.91,18.91,0,0,0,297,59.7l-7.67,21Z"/><path class="cls-2" d="M273.18,22.06,235,127H213.5L251.64,22.21Z"/><path class="cls-2" d="M220.93,67.46,199.26,127H176l24.43-67.14c1.42-3.95,1.58-6.68.42-8.22s-3.68-2.31-7.61-2.31c-.91,0-2.79.06-5.64.16L159.4,127H136.12L174.32,22.06h23.26l-7.5,20.6h15.41q10.1,0,14.61,7.34T220.93,67.46Z"/><path class="cls-2" d="M156,42.66l-2.42,6.66H135.5l-21.81,59.91q-2.31,6.36,0,8.73c1.16,1.17,3.57,1.77,7.27,1.77h5.38L123.66,127H108.55q-11.7,0-15.25-8.59-3.37-7.86,1-19.86l17.91-49.21H99.92l2.42-6.66h12.31l5.12-14.07,23.23.14-5.08,13.93Z"/><path class="cls-2" d="M63.13,127H39.87L55.35,84.46H38.75L23.26,127H0L29.19,46.81A37.71,37.71,0,0,1,42.76,29.32q9.83-7.25,19.94-7.26H77q10.09,0,14.6,7.26t.76,17.49Zm-5.35-49.2L71.87,39.07a10.71,10.71,0,0,0,.5-7.1c-.61-2.36-2.26-3.55-4.93-3.55A10.53,10.53,0,0,0,59.92,32a18.08,18.08,0,0,0-4.65,7.1L41.18,77.79Z"/></g></g></g></svg>