<svg xmlns="http://www.w3.org/2000/svg" viewBox="0 0 538.52 613.53"><defs><style>.cls-1{fill:#e6e6e6;}.cls-2{fill:#17355d;}.cls-3,.cls-7{fill:none;}.cls-4{fill:#999;}.cls-5{fill:#95a5a6;}.cls-6{fill:#fff;}.cls-7{stroke:#17355d;stroke-linecap:round;stroke-linejoin:round;stroke-width:0;}</style></defs><title>AT-Placeholder</title><g id="Layer_2" data-name="Layer 2"><g id="Layer_1-2" data-name="Layer 1"><path class="cls-1" d="M146,74.44V6.91A6.91,6.91,0,0,1,152.92,0h67.54c3.81,0-60.62,13.81-60.62,13.81S146,78.26,146,74.44Z"/><path class="cls-1" d="M220.46,251.51H152.92a6.91,6.91,0,0,1-6.91-6.9V177.07c0-3.82,13.82,60.62,13.82,60.62S224.27,251.51,220.46,251.51Z"/><path class="cls-1" d="M390.62,251.51H323.09c-3.82,0,60.62-13.82,60.62-13.82s13.82-64.44,13.82-60.62v67.54A6.91,6.91,0,0,1,390.62,251.51Z"/><path class="cls-1" d="M383.71,13.81S319.27,0,323.09,0h67.53a6.91,6.91,0,0,1,6.9,6.91V74.44C397.53,78.26,383.71,13.81,383.71,13.81Z"/><path class="cls-2" d="M375.87,51.91A121.28,121.28,0,1,0,190.69,207.14,122.67,122.67,0,0,0,207,220.81c-23.44-24.42-35.76-57.43-35.77-90,0-30,10.46-59.76,32.67-82s52-32.68,81.95-32.67C318.43,16.15,351.45,28.48,375.87,51.91Z"/><path class="cls-3" d="M263.2,84,263,84Z"/><path class="cls-3" d="M274.74,109.88c-.3-.92-.71-.71-.66-.16a4.81,4.81,0,0,1-.4,2.54,46.67,46.67,0,0,0-1.68,7.58c-.14,1.67.62,4.26.56,6.29s-1,4-1.12,7.7S269.58,144.22,269,146a8.7,8.7,0,0,0-.55,4.6c.2,1.93-1,7.24-1.32,8.41,0,.13-.05.26-.08.39-.12.74-.21,1.93-.26,2.91,0-.2,0-.41,0-.61,0,.42,0,.72,0,.73,0,.51,0,1,0,1.51,0,0,0,.06,0,.09s0,.41,0,.57a1.72,1.72,0,0,1,0,.28,37.91,37.91,0,0,0-.66,4.37c0,1.57-1.63,9-1.93,11.25s.06,4.41-.65,5.42c-.14.18-.29.53-.45.73s0,.13,0,.13c1.41,1.62,4.13,6.31,7.26,12.17.07-.23,3.35-7.84,2.64-13.88a39.67,39.67,0,0,1,1.19-13.9,8.47,8.47,0,0,0,1-3.08,32.12,32.12,0,0,1,.92-6,31.11,31.11,0,0,1,4.37-9.12c2-3.14,1.68-6.1,3.51-9.09s1.08-5,.6-6.8-1.62-5.07-2.22-6.86-1-1.78-1-3.78-.21-.87-.86-2.7c-.57-1.61-.06-3.57-.14-4.88-.13-.15-.28-.31-.4-.47A51.2,51.2,0,0,1,274.74,109.88Z"/><path class="cls-3" d="M267.09,159a5.49,5.49,0,0,0-.11.54c0-.05,0-.11,0-.16S267.06,159.07,267.09,159Z"/><path class="cls-3" d="M262.78,84.12l-.14.07Z"/><path class="cls-3" d="M263,84l-.16.07Z"/><path class="cls-3" d="M267.92,93.63a15.22,15.22,0,0,0-.94-1.89C267.42,92.59,267.81,93.36,267.92,93.63Z"/><path class="cls-3" d="M293.23,133.09a12.31,12.31,0,0,1-1-.87A8,8,0,0,0,293.23,133.09Z"/><path class="cls-3" d="M255.77,104.89l-1.19.35Z"/><path class="cls-3" d="M323.74,119.43a12.81,12.81,0,0,1,2.29-1.32,21.82,21.82,0,0,0-2.31,1.21Z"/><path class="cls-3" d="M234.33,160.57a2.55,2.55,0,0,0,.73.14l-.78-.16Z"/><path class="cls-3" d="M230.18,124.21c.51-.15,1-.3,1.5-.47h0C231.19,123.91,230.69,124.07,230.18,124.21Z"/><path class="cls-3" d="M233.46,88l1.28-.74-1.29.74Z"/><path class="cls-4" d="M230.18,124.21c.51-.14,1-.3,1.5-.47h0a19.11,19.11,0,0,0,6.41-3.36c5-4.89,3.75-11.81,3.74-11.89a39.8,39.8,0,0,0-5.91-14.88,32.72,32.72,0,0,0-2.81-3.45c-.69-.73-.84-.93-.87-1.14-.09.31,0,.65-.21.85s-4.55,4.27-7.49,5c-.49.13-9.65,2.17-11.91,10.08,0,0-2.11,6-14.18,15,0,0-4.91,4.56-5.27,7.3s-.2,3.69,1.37,10.79,2.23,8.8,3.28,11.13,4.42,8.36,4.87,11.66,2.74,5.82,2.63,7.44-.09,5.54.51,6.64a40.86,40.86,0,0,1,1.51,4.6,25.74,25.74,0,0,1,.91,3.77c.07.6.53,2.32.94,2.47a1.41,1.41,0,0,0,1.23,0c.53-.23.83-.76.69-1.79s-.23-1.75.14-.83,1,2.93,1.17,3.45.58,1.41,1,1.52a2.06,2.06,0,0,0,1.37-.19c.37-.19.27,0,.84.25a1.48,1.48,0,0,0,1.64-.17,2.51,2.51,0,0,0,.68-2c0-.79.38-.27.68-.27s1.06-.27,1.4-1.4a13.56,13.56,0,0,0,.19-5.22c-.3-1.63-.87-4.06-.38-3.53s2.08.72,2.32-.34a18.74,18.74,0,0,0-.48-5.82c-.48-1.77.24-3.25-1.57-4.67-1.16-.9-3-2.24-4-2.39s-4.33-1.62-7-12.74a57.23,57.23,0,0,1-1.47-9.29c-.28-4.56-1.12-9.31-1.12-9.31a1.2,1.2,0,0,1,1.07-.64c.87-.11,7.83-5,13.52-9.32,0,0,.15.08.41.84s1.92,4,2.45,4.95C224.72,126.06,227.29,125,230.18,124.21Zm11.73-13.82-.1.08Z"/><path class="cls-4" d="M240.24,87.6h0l.77,1s1.21,1.67,1.31,1.82c1.13,1.65,4.57,8.48,6.67,11.07,1.21,1.49,3.68,4.25,5.57,3.7l1.19-.35a8.7,8.7,0,0,0,1.3-.51c.47-.26,2.51-1.19,3.05-1.35,2.19-1.08,2.15-4.17,2.15-5.5,0-.87-.31-3.81-.41-4.51-.45-3.1-.66-1.94-.73-5.47a4.83,4.83,0,0,1,.67-2.61,2.75,2.75,0,0,1,.23-.31,1.06,1.06,0,0,1,.35-.3l.26-.13.14-.07,0,0L263,84l.05,0,.17,0c0-.14.12-.38.48-.53s2-1.18,1.89-4.09.15-2.81.25-3.24c.23-1-.92-.85.2-2.18a2.45,2.45,0,0,0,.32-1.81,3,3,0,0,1,1.53-2.52c.39-.18,1.8-.69,1.49-1.75s-2.14-3.59-2.42-4.49.61-1.74.66-2.62-.18-1.32-1.27-3.05-1.16-2.22-.87-2.79,1.59-3.73-3.25-6.47-5.82-3-6.83-3.17-5-.18-6-.18a12.09,12.09,0,0,0-2.88,0c-.83.23-3.11,1.22-3.6,1.3a4.91,4.91,0,0,0-2,.57c-.77.46-.92,1-2.09,1s-1.32.27-2.11,1.17-1.35,2.06-2,2.43-.45,1.3-.49,1.95a9.91,9.91,0,0,1-.38,2.74,13.31,13.31,0,0,0-.15,3.49,12.48,12.48,0,0,0,.5,3.53c.3.83,1.21,4.06,1.78,5.2s1.74,3,2.31,4,1.34,2.25,1.79,3.15,1.14,2.17,1.22,2.35.19.74.19.74,1.11,4.84-2.7,6.92C238.91,85.84,239.55,86.67,240.24,87.6Z"/><path class="cls-2" d="M270.23,239.51c-.14-1.89-1.05-2.64-4.15-6.95a35.23,35.23,0,0,0-4.32-4.59,48,48,0,0,1-9.41,9.14c-2.31,1.78-6,3.9-11.55,14.48s-6.76,14.64-7.73,15.82c-.25.31-2.7,3.77-4.86,5.25a.93.93,0,0,0-.65-.1h0a1.57,1.57,0,0,0-.77.46c-.81.81-4.27,4.06-5.19,6.53s-.75,5.42,1.36,9.14,2.48,9.07,3,11.39,2.27,7,6.54,8.22,11.72,1.51,12.58,1.24,2.75-2.65,2.43-3.4-.75-1.53-2.59-2.6-2.59-.32-3.19-4S241,292,240.54,291a3.18,3.18,0,0,1-.1-3.2,8.34,8.34,0,0,0,1-3.39c.05-.84-.35-1.4-.7-1.15a2.11,2.11,0,0,0-.46-.05c-.49-2.33.84-5.27.83-5.79a14.56,14.56,0,0,1,1.13-3.15c1.3-2.39,2.38-4.81,7.84-10.44s7.51-7.62,9.77-10.1,6.64-6.8,9.61-8.64l.83-.49C270.26,242.14,270.28,240.14,270.23,239.51Z"/><path class="cls-2" d="M365.21,193.64c-3.84-4.05-8.26-8.37-9.34-9.39a53.51,53.51,0,0,0-6.45-4.54c-.56-.54-13.4-7.14-13.8-7.32-2.43-1.13-4.46-2.06-6.09-3-6.45-3.52-6-6.52-6-6.79,0-4.38.7-9.51.22-13.07,0,0-.15-1.63-.19-4a46.19,46.19,0,0,1,1.33-12c.55-2.14,2.26-7.5,2.26-7.5a79.39,79.39,0,0,1,4.82-7.34,95.86,95.86,0,0,0,7.12-11.67c1-2.11,3.29-2.79,4.86-5.66a27.31,27.31,0,0,0,2.54-6.12c.33-1.13.67-2.63,0-3.07-.25-.18-.84-.42-1.13-.09s.17-.5.17-1.22a1.78,1.78,0,0,0-1-1.79,1.62,1.62,0,0,0-1.26,0,6.11,6.11,0,0,0,.23-1.23c0-1.45-1.39-1.69-2.38-1.21-.44.12-.12-.57,0-1.17a1.93,1.93,0,0,0-.6-1.57,2,2,0,0,0-1.72-.41,1.91,1.91,0,0,0-.77.28.87.87,0,0,0-.44-.52c-.36-.2-.73-.29-1.28.52a10.19,10.19,0,0,1-2.65,2.3c-1.23.75-1.25,3-2.26,4.13s-1.47,2-1.38,3a49.35,49.35,0,0,1,.72,5.43,12.42,12.42,0,0,1-.23,2.46l.21-.07a2.2,2.2,0,0,1,2.17.27,1,1,0,0,1,.34.61,4.67,4.67,0,0,1,1.14.56c.35.3.24,1.63-.8,2.25s-.46.65-.19.68.64.75.64,1.44-1.58,1.87-2.79,3-3,2.82-4.1,3.72-.08.74-.08.74,2-.92,3.83-1.69,1.79.23,2,.51-.38,1.4-.73,1.75a39.89,39.89,0,0,1-6,3.18,12.81,12.81,0,0,0-2.29,1.32l0-.11a46.35,46.35,0,0,0-4.65,3.26c-1.18.9-13.84,8.35-17.37,10s-6.3,2-8.22.7l-.24-.17a8,8,0,0,1-1-.87c-3.14-3.05-10-11.25-11.9-13.42.08,1.31-.43,3.27.14,4.88.66,1.83.91.69.86,2.7s.39,2,1,3.78,1.73,5.08,2.22,6.86,1.23,3.84-.6,6.8-1.51,6-3.51,9.09a31.11,31.11,0,0,0-4.37,9.12,32.12,32.12,0,0,0-.92,6,8.47,8.47,0,0,1-1,3.08,39.67,39.67,0,0,0-1.19,13.9c.71,6-2.57,13.65-2.64,13.88.69,1.28,1.39,2.62,2.11,4,4,7.65,12.76,17.32,13.68,19.61.26.64.51,1.18.72,1.77.55-1.09.94-1.9,1-2.15a5.72,5.72,0,0,0,.92-.7c.38-.49,4.91-10.42,6.1-13.07s7.61-10.55,9.18-12.11,1.67-2,2.5-1.51a49.3,49.3,0,0,0,12.35,5.39c5.68,1.42,12.05,2,14.53,1.68.07,0,.65,0,1-.09.83,0-.19.31-.19.31a20.35,20.35,0,0,0-6.58,3.47c-1.82,1.52-4,5.23-6.24,7s-8.69,7.36-9.29,7.74-.57-.09-1.34.38c-3.38,2-5.33,2-5.44,2a54.78,54.78,0,0,0-5.43,1.42c-2.42,1-6,3.16-6.21,5.28s2.11,6.82,3.3,9,4.33,6,3.24,11.39-.06,8.06,1.83,11.73,3.56,5.83,5.57,6.37,4.76-.38,5.13-2.16-1.36-7.51-1.52-11.45.16-8,1.52-9.78a8.55,8.55,0,0,1,4.65-3.46c1.62-.32,1.73-1.93,1-2.11a3.71,3.71,0,0,0-.5,0c-.54,0-1.64,0-1.64,0-.28,0-.67-.08-1.07-.12-.8-.16-.89-.58-.33-1.57,1-1.8,5.78-5,5.86-5.23,0,0,0,0,0,0,2.85-2.53,6.25-5.19,9.41-6.37,6.15-2.32,15.07-5,17.78-6.5s6.42-3.66,8.69-4.36,9-4.92,10.26-7.78S369,197.69,365.21,193.64Z"/><path class="cls-2" d="M288.44,107.17c5.8,7.58,8.45,10.23,11.06,15.68,1.78-1.23,10.67-4.1,13.41-6.57.58-.52.41-1.54.29-2.43s1-3.11,2.17-5.13a9.51,9.51,0,0,1,3.91-3.19c.54-.34,1.33-1.86,2-2.36s2,.28,2.28.73a5,5,0,0,1,.46,1.56,22.19,22.19,0,0,0,1.6-1.65,4,4,0,0,1,.65-.54c-.82-2.41-2.62-7.44-2.59-8s.85-4.48.09-6.2c-.89-2-2.55-3-4.74-4.42S312.86,81,312.86,81a1.86,1.86,0,0,1-.4-.16c-.12-.09-.18-.21,0-.37a4.45,4.45,0,0,1,3.08-1.12c1.82,0,4.32-.82,4.21-3a24.61,24.61,0,0,1-.12-4c0-1.3-.22-2-.45-2.09s.21-.37.36-1.23,0-.77.89-1,2.43-1.13,2.07-2.42-2.52-3.86-3-5.07-.53-1.36-.29-1.85a4.43,4.43,0,0,0,.06-3.27c-.23-.72-1.08-2.33-1.33-3.1a25.61,25.61,0,0,0-1.42-2.88,1.37,1.37,0,0,0,.29-.69c0-.32-1.18-.76-.41-1.73s1.59-1.47,1.66-2-1.05-.49-1.41-.49h-.06c.12,0,.39-.2.58-.78.33-1,.13-1.33-1.1-.72s-1.05.2-.69-.68,1-1.54-.85-.95-3,.91-7.67.13-9-1.06-12.38.53-3.34,2.34-4.43,3.43a12.52,12.52,0,0,0-2.47,3.65,13.91,13.91,0,0,0-1.1,3.57c-.08,1-1.22,3.56-.57,5.59a32.21,32.21,0,0,1,.77,4.5,25.41,25.41,0,0,0,2,4.26c1,1.78,1.16,1.9,1.57,2.75s.68,1.62.93,2.07a8.73,8.73,0,0,0,.52.82s.49.16.59,1.08.71,2.92.37,3.57a3.82,3.82,0,0,1-.22.37,9.15,9.15,0,0,0-.82,1.14l0,0a4.06,4.06,0,0,0-.76,1.16c-.11.38-2.22,1-6.53,6.8-1.53,2-2.49,3.4-3.15,4.41C285.9,96.19,285.11,102.81,288.44,107.17Z"/><path class="cls-5" d="M267.09,159c0,.11-.05.24-.08.39C267,159.22,267.06,159.09,267.09,159Z"/><path class="cls-5" d="M267,159.35c0,.05,0,.11,0,.16-.11.68-.17,1.53-.2,2.14,0,.21,0,.41,0,.61C266.81,161.27,266.89,160.09,267,159.35Z"/><path class="cls-4" d="M265.46,88.87c.1.17.86,1.6,1.52,2.87a15.22,15.22,0,0,1,.94,1.89c.54,1.32.76,2.71,1.31,4.09s1.35,2.61,2,4,.93,2.79,1.53,4.15c.89,2.13,1.87,4.09,1,6.38a4.81,4.81,0,0,0,.4-2.54c0-.55.36-.76.66.16a51.2,51.2,0,0,0,5.22,8.46c.12.16.27.31.4.47,1.85,2.17,8.75,10.37,11.9,13.42a12.31,12.31,0,0,0,1,.87l.24.17c1.92,1.26,4.69.94,8.22-.7s16.19-9.08,17.37-10a46.35,46.35,0,0,1,4.65-3.26,21.82,21.82,0,0,1,2.31-1.21,39.89,39.89,0,0,0,6-3.18c.35-.35.91-1.49.73-1.75s-.19-1.26-2-.51-3.83,1.69-3.83,1.69-1,.18.08-.74,2.88-2.62,4.1-3.72,2.79-2.27,2.79-3-.36-1.4-.64-1.44-.83-.07.19-.68,1.15-2,.8-2.25a4.67,4.67,0,0,0-1.14-.56,1,1,0,0,0-.34-.61,2.2,2.2,0,0,0-2.17-.27l-.21.07a19.17,19.17,0,0,0-4.15,2.09,4,4,0,0,0-.65.54,22.19,22.19,0,0,1-1.6,1.65,5,5,0,0,0-.46-1.56c-.31-.45-1.6-1.22-2.28-.73s-1.48,2-2,2.36a9.51,9.51,0,0,0-3.91,3.19c-1.21,2-2.28,4.26-2.17,5.13s.29,1.91-.29,2.43c-2.75,2.47-11.63,5.34-13.41,6.57-2.61-5.45-5.26-8.1-11.06-15.68-3.34-4.37-2.55-11-7.3-15.76a17,17,0,0,0-7.09-4.06c-2.26-.72-8.84-1.32-10.6-3.22h0A18.29,18.29,0,0,0,265.46,88.87Z"/><path class="cls-5" d="M234.75,87.24l-1.31.75h0Z"/><path class="cls-4" d="M272.41,202.88c-.72-1.37-1.42-2.71-2.11-4-3.13-5.85-5.85-10.54-7.26-12.17,0,0-.11,0,0-.13s.31-.55.45-.73c.71-1,.34-3.19.65-5.42s1.93-9.68,1.93-11.25a37.91,37.91,0,0,1,.66-4.37,1.72,1.72,0,0,0,0-.28c0-.16,0-.44,0-.57,0,1.76-1.76,4.92-7.28,4.81a19,19,0,0,1-4.66-.47c-1.48-.39-3-.89-4.46-1.26s-2.72-.66-4.39-1c-5-.92-4.88-3.72-9.66-5.11-.28-.08-.72-.17-1.18-.27a2.55,2.55,0,0,1-.73-.14l0,0a8.57,8.57,0,0,1-1-.26c-.52-.21-1.64-1.64-3.9-1.68a34.39,34.39,0,0,0-1.55,3.29c-.71,1.72-3.65,5.93-4,7.09s-2,7.45-.77,13.28c.36,1.65.64,3.26,1.07,4.81.64,2.27,2.16,6.93,3.8,11.39,0,0-.26.75-.31,1s-3.18,11.66-3.49,15,0,7.14-.81,9.21-.46,3-1.68,1.73-5.93-6.23-12.51-7.54a43.46,43.46,0,0,1-9-2.49c-2.64-.85-18-4.66-20.22-5.48s-4.3-1.46-5-2.47a8.09,8.09,0,0,1-.44-1.19c-1-2.39-2.8-4.94-7-8.32a2,2,0,0,0-2.16.42,40,40,0,0,0-6.46,6c-2.43,3.07-6.76,4.79-9,6a24.8,24.8,0,0,0-9.13,8.24c-2.66,4.33-2.12,5.45-1.52,6.69a3.73,3.73,0,0,0,4.71,1.44c2-.88,3.32-2.85,7.15-3.87s6.11-1.49,8.81-1.34,4.6.28,5.36,1,1.85,1.52,2.35.45a13.09,13.09,0,0,0,.73-2.53.43.43,0,0,1,.3,0,52.85,52.85,0,0,1,20.28,7c10.14,6.09,21,13,26.84,16.35a84.22,84.22,0,0,0,9.88,4.81c.9.55,5.82,1.33,9.21-3.64s7.65-12.36,10.08-16,6.28-9.73,6.28-9.73.21-.15.46.16,5.73,4.54,10.07,8.58a35.23,35.23,0,0,1,4.32,4.59c3.09,4.31,4,5.06,4.15,6.95.05.63,0,2.64,0,5.12,0,4.81.12,11.48,1.08,13.82a176.76,176.76,0,0,0,9.42,18.09c3.25,5.26,8.21,14.07,9.93,21a27.85,27.85,0,0,1,.63,4.06,2.69,2.69,0,0,1-.12.4h0c-.26.4,0,1.15.15,1.53.44,1.37,1.59,5.17,3.22,6.91s2.42,3.12,3.6,3.4,6.77-.92,10.42-.51,7.41,1.53,9.49.19,8.17-4.17,10.79-8.13,2.74-4.47,2-5.49a5,5,0,0,0-4.07-1.91c-1.9,0-2.81.88-6.31.61s-10.67-1.25-13.72-3.28c-.43-.29-.87-.72-1.34-1a42.77,42.77,0,0,1-6-6.07c-1-1.26-3.85-7.08-6.64-21.52s-4.19-16.52-5-19-1.47-7.6-.76-14.85c.51-5.18.23-7.1-.3-8.6-.21-.6-.46-1.13-.72-1.77C285.17,220.2,276.41,210.52,272.41,202.88Z"/><path class="cls-2" d="M234.28,160.56l.78.16c.46.1.9.19,1.18.27,4.77,1.39,4.66,4.19,9.66,5.11,1.68.31,3,.61,4.39,1s3,.87,4.46,1.26a19,19,0,0,0,4.66.47c5.52.11,7.26-3.05,7.28-4.81,0,0,0-.07,0-.09,0-.5,0-1,0-1.51,0,0,0-.31,0-.73,0-.6.09-1.46.2-2.14a5.49,5.49,0,0,1,.11-.54c.3-1.17,1.52-6.48,1.32-8.41A8.7,8.7,0,0,1,269,146c.62-1.73,2.38-8.47,2.48-12.11s1.07-5.67,1.12-7.7-.71-4.62-.56-6.29a46.67,46.67,0,0,1,1.68-7.58c.91-2.3-.06-4.26-1-6.38-.6-1.36-.94-2.8-1.53-4.15s-1.44-2.64-2-4-.77-2.77-1.31-4.09c-.11-.27-.5-1-.94-1.89-.65-1.27-1.42-2.7-1.52-2.87a18.29,18.29,0,0,1-2-4.72h0a.21.21,0,0,0-.25-.18L263,84,263,84l-.16.07,0,0-.14.07-.26.13a1.06,1.06,0,0,0-.35.3,2.75,2.75,0,0,0-.23.31,4.83,4.83,0,0,0-.67,2.61c.07,3.53.28,2.37.73,5.47.1.7.41,3.65.41,4.51,0,1.33,0,4.41-2.15,5.5-.54.17-2.58,1.1-3.05,1.35a8.7,8.7,0,0,1-1.3.51l-1.19.35c-1.9.55-4.36-2.21-5.57-3.7-2.11-2.59-5.55-9.42-6.67-11.07-.1-.15-1.28-1.78-1.31-1.82l-.77-1h0c-.69-.93-1.33-1.76-1.54-2l0,0a1.34,1.34,0,0,0-1.32-.25c-.76.25-1.56,1.24-2.17,1.61l-.44.25-1.28.74h0a2.52,2.52,0,0,0-1.2,1s0,0,0,0c0,.21.17.41.87,1.14a32.72,32.72,0,0,1,2.81,3.45,39.8,39.8,0,0,1,5.91,14.88c0,.08,1.26,7-3.74,11.89a19.11,19.11,0,0,1-6.41,3.36c-.49.17-1,.33-1.5.47-2.9.83-5.46,1.84-6.12,2.64a.64.64,0,0,0-.17.36,2.4,2.4,0,0,0,.78,1.91c0,.23-.35.27-.1.76a18.42,18.42,0,0,1,1.25,2c.3.76,0,1.9,1,3.27a9.43,9.43,0,0,1,1.63,4.33A23.48,23.48,0,0,0,229,144c.3.83,1,5.33,1.4,6.39s.11,3.08.2,3.77-.65,1.59-.73,1.94a13.18,13.18,0,0,0-.54,2.09,1.38,1.38,0,0,0,0,.45c2.26,0,3.38,1.47,3.9,1.68A8.57,8.57,0,0,0,234.28,160.56Zm20.91-32.09c1.26-1.31,2.42-.86,5-1.07s6.83-1.05,6.83-1.05-.2,1.41-.34,2.57a9.53,9.53,0,0,0,0,2.29,24.5,24.5,0,0,0,.7,5.81c.75,3.19.1,2.58,0,4.46a27.75,27.75,0,0,1-.7,4.6,15.13,15.13,0,0,1-1.53,3.2,19.06,19.06,0,0,1-8,3.34,69.57,69.57,0,0,0-9.1,2.48s0,.35-.16-.25a14.4,14.4,0,0,1,.26-3.9,15,15,0,0,0-.42-6.37c-.8-3-.25-7.4,0-9.22a30.35,30.35,0,0,0,0-5.07,7.61,7.61,0,0,0,2.84-.2C252.6,129.68,253.92,129.78,255.19,128.47Z"/><path class="cls-6" d="M247.79,130.29a30.35,30.35,0,0,1,0,5.07c-.25,1.82-.8,6.19,0,9.22a15,15,0,0,1,.42,6.37,14.4,14.4,0,0,0-.26,3.9c.16.61.16.25.16.25a69.57,69.57,0,0,1,9.1-2.48,19.06,19.06,0,0,0,8-3.34,15.13,15.13,0,0,0,1.53-3.2,27.75,27.75,0,0,0,.7-4.6c.1-1.88.75-1.27,0-4.46a24.5,24.5,0,0,1-.7-5.81,9.53,9.53,0,0,1,0-2.29c.14-1.16.34-2.57.34-2.57s-4.25.86-6.83,1.05-3.76-.24-5,1.07-2.58,1.21-4.56,1.62A7.61,7.61,0,0,1,247.79,130.29Z"/><line class="cls-7" x1="241.92" y1="110.39" x2="241.81" y2="110.48"/><path class="cls-1" d="M116.68,410.21c.57,2.33-.08,5-.76,7.18-.55,1.81-1.13,3.59-1.78,5.35l14.53,24.14H169L501.15,259.1V247.84Z"/><path class="cls-4" d="M75.8,446.91H51.32l16.3-44.75H50.15L33.86,446.91H9.38l30.71-84.35q3.9-10.75,14.27-18.4t21-7.64h15q10.62,0,15.35,7.64t.81,18.4Zm-5.64-51.76L85,354.42q1.59-4.35.54-7.47c-.66-2.47-2.39-3.72-5.19-3.72s-5.44,1.25-7.91,3.72a19,19,0,0,0-4.9,7.47L52.7,395.15Z"/><path class="cls-4" d="M175.29,358.19l-2.55,7h-19l-22.94,63q-2.43,6.7,0,9.19c1.23,1.25,3.78,1.86,7.67,1.86h5.66l-2.79,7.64h-15.9q-12.32,0-16-9-3.54-8.27,1.06-20.89l18.83-51.77H116.29l2.55-7h13l5.38-14.81,24.42.15-5.34,14.66Z"/><path class="cls-4" d="M243.58,384.28l-22.8,62.63H196.32L222,376.28c1.51-4.16,1.66-7,.45-8.65s-3.88-2.42-8-2.42c-.95,0-2.93.06-5.93.16l-29.68,81.54H154.37l40.18-110.38H219l-7.89,21.67h16.21q10.61,0,15.35,7.73T243.58,384.28Z"/><path class="cls-4" d="M295,336.53,254.77,446.91h-22.6l40.12-110.24Z"/><path class="cls-4" d="M347.84,414.79l-2.21,6.08a41,41,0,0,1-14.21,18.48q-10.06,7.56-21,7.56H295.3q-10.59,0-15.3-7.66t-.77-18.43l13.3-36.54a39.75,39.75,0,0,1,14.19-18.43q10.25-7.65,20.87-7.65h15.12q10.6,0,15.36,7.72t.88,18.31l-7.65,21H309.36l-8.43,23.19a12.4,12.4,0,0,0-.73,7.52,4.92,4.92,0,0,0,5.18,3.6q9,0,14.86-16.22l1.7-4.67c.72-2,1.2-3.28,1.42-3.91Zm-18.46-16.52,7.89-22.09a12.31,12.31,0,0,0,.71-7.51q-1.13-3.77-5.34-3.77t-7.91,3.73a20.24,20.24,0,0,0-4.76,7.49l-8.06,22.14Z"/><path class="cls-4" d="M432.54,358.19l-2.55,7H411l-22.93,63q-2.44,6.7,0,9.19c1.23,1.25,3.78,1.86,7.66,1.86h5.67l-2.78,7.64h-15.9q-12.32,0-16-9-3.54-8.27,1.05-20.89l18.85-51.77h-13l2.56-7H389l5.38-14.81,24.42.15-5.33,14.66Z"/><path class="cls-4" d="M433,446.91H410.08l32.18-88.39,23-.32Zm40.18-110.38-4.43,12.16H445.82l4.43-12.16Z"/><path class="cls-4" d="M527.87,408.55l-4.49,12.32a39.7,39.7,0,0,1-14.17,18.4q-10.29,7.65-20.87,7.64H473.22q-10.76,0-15.46-7.66T457,420.82l13.31-36.54a39.87,39.87,0,0,1,14.19-18.43q10.26-7.65,21-7.65h15.13q10.75,0,15.37,7.64t.71,18.4L533,394.36H508.55l6.61-18.13a11.5,11.5,0,0,0,.46-7.69c-.75-2.22-2.48-3.34-5.18-3.34a10.83,10.83,0,0,0-7.69,3.36,20.22,20.22,0,0,0-5.07,7.71l-19,52.24a11.32,11.32,0,0,0-.55,7.48q1,3.59,5.25,3.59,4.06,0,7.85-3.59a19.17,19.17,0,0,0,4.91-7.48l7.26-20Z"/><path class="cls-2" d="M96.71,476.16h-32l-25,100H7l25-100H0l3.74-14.95h96.7Z"/><path class="cls-2" d="M111.51,576.17H78.9l21.7-87.22H133.2Zm6.18-90.52a12.38,12.38,0,0,1-9.13-3.52,12,12,0,0,1-3.51-8.84q0-7.76,6.46-14T125.88,453a12.55,12.55,0,0,1,9.27,3.51,12,12,0,0,1,3.52,8.84q0,7.76-6.53,14T117.69,485.64Z"/><path class="cls-2" d="M243.29,576.17H211l17-68a8,8,0,0,0,.29-1.86,2.16,2.16,0,0,0-2.44-2.45,10.51,10.51,0,0,0-4.16.57,4.27,4.27,0,0,0-2.31,3.32l-17.09,68.4H169.86l17-68a8,8,0,0,0,.29-1.86,2.16,2.16,0,0,0-2.44-2.45,10.6,10.6,0,0,0-4.18.57,4.24,4.24,0,0,0-2.29,3.32l-17.1,68.4H128.48L147.16,501a15.71,15.71,0,0,1,5.75-8.32,14.78,14.78,0,0,1,9.34-3.74h90.24a10.25,10.25,0,0,1,7.11,2.51,8.54,8.54,0,0,1,2.81,6.68,13.1,13.1,0,0,1-.43,3.15Z"/><path class="cls-2" d="M291.83,576.17H259.21l21.69-87.22h32.62ZM298,485.64a12.29,12.29,0,0,1-9.12-3.52,12,12,0,0,1-3.53-8.84q0-7.76,6.46-14T306.2,453a12.56,12.56,0,0,1,9.27,3.51,12,12,0,0,1,3.51,8.84q0,7.76-6.53,14T298,485.64Z"/><path class="cls-2" d="M382.51,576.17H350.18l17-68a8,8,0,0,0,.29-1.86,2.16,2.16,0,0,0-2.43-2.45,10.59,10.59,0,0,0-4.18.57,4.28,4.28,0,0,0-2.3,3.32l-17.09,68.4H308.79L327.48,501a15.71,15.71,0,0,1,5.75-8.32,14.73,14.73,0,0,1,9.33-3.74h49.15a10.25,10.25,0,0,1,7.11,2.51,8.53,8.53,0,0,1,2.8,6.68,13.05,13.05,0,0,1-.43,3.15Z"/><path class="cls-2" d="M466,601.45a17.09,17.09,0,0,1-15.52,12.07H401.36a8.8,8.8,0,0,1-7.47-3.66,9.76,9.76,0,0,1-1.44-8.7l4-16.38h32.62l-2.29,9.48a7.84,7.84,0,0,0-.29,1.87q0,2.44,2.29,2.44A10.32,10.32,0,0,0,433,598a4.17,4.17,0,0,0,2.44-3.3L440,576.17H410.69a8.88,8.88,0,0,1-6.61-2.8,9.26,9.26,0,0,1-2.72-6.69,11.61,11.61,0,0,1,.28-2.58L417.45,501a15.75,15.75,0,0,1,5.75-8.32,14.77,14.77,0,0,1,9.34-3.74h49.14a10.07,10.07,0,0,1,7,2.51,8.5,8.5,0,0,1,2.8,6.68,12.79,12.79,0,0,1-.43,3.15Zm-21.12-44.54L457,508.2a7.9,7.9,0,0,0,.29-1.86c0-1.63-.77-2.45-2.29-2.45a10.47,10.47,0,0,0-4.16.57,4.19,4.19,0,0,0-2.46,3.32L436,557.34a5,5,0,0,0-.29,1.43,2,2,0,0,0,.94,1.94,9.74,9.74,0,0,0,3.95.51Q443.74,561.22,444.89,556.91Z"/></g></g></svg>